<svg width="521" height="574" viewBox="0 0 521 574" fill="none" xmlns="http://www.w3.org/2000/svg">
<mask id="mask0" mask-type="alpha" maskUnits="userSpaceOnUse" x="0" y="62" width="521" height="512">
<path fill-rule="evenodd" clip-rule="evenodd" d="M0.0012207 62.3014H520.785V573.31H0.0012207V62.3014Z" fill="white"/>
</mask>
<g mask="url(#mask0)">
<path fill-rule="evenodd" clip-rule="evenodd" d="M457.329 550.18C443.853 558.28 428.173 564.13 410.89 567.93C399.418 570.43 387.194 572.08 374.47 572.78C327.68 575.63 273.877 566.88 222.027 549.38C210.405 545.48 198.883 541.13 187.561 536.33C103.249 500.93 29.9586 443.13 9.41913 376.13C-28.1029 253.83 52.4517 165.88 145.731 85.18C183.553 52.43 232.848 57.13 283.846 84.78C295.769 91.23 307.742 98.93 319.715 107.68C364.651 140.63 409.136 188.58 446.708 241.88C520.45 346.53 563.132 486.73 457.329 550.18Z" fill="#FDE6D6"/>
</g>
<path fill-rule="evenodd" clip-rule="evenodd" d="M418.02 155.935C409.318 138.425 406.132 116.265 423.58 109.13C443.068 101.165 474.117 114.045 483.155 143.27C488.931 161.945 486.947 188.015 470.986 198.035C457.33 206.615 428.695 177.41 418.02 155.935Z" fill="#E8E5EA"/>
<path fill-rule="evenodd" clip-rule="evenodd" d="M141.757 66.8425C141.742 66.8425 141.727 66.8425 141.712 66.8425C138.361 66.6125 134.999 66.4875 131.733 66.4675C131.382 66.4675 131.107 66.1875 131.107 65.8425C131.112 65.4975 131.387 65.2175 131.733 65.2175H131.738C135.034 65.2375 138.421 65.3625 141.802 65.5925C142.148 65.6175 142.403 65.9175 142.383 66.2625C142.358 66.5925 142.083 66.8425 141.757 66.8425ZM111.729 67.8025C111.424 67.8025 111.153 67.5775 111.108 67.2675C111.058 66.9275 111.294 66.6075 111.639 66.5575C114.875 66.0875 118.252 65.7375 121.663 65.5125C122.054 65.4475 122.31 65.7525 122.33 66.0975C122.355 66.4375 122.094 66.7375 121.749 66.7575C118.367 66.9825 115.026 67.3325 111.82 67.7925C111.789 67.7975 111.759 67.8025 111.729 67.8025ZM161.665 69.3175C161.625 69.3175 161.59 69.3125 161.555 69.3075C158.264 68.7175 154.937 68.2175 151.666 67.8075C151.32 67.7625 151.075 67.4525 151.12 67.1075C151.165 66.7675 151.451 66.5375 151.821 66.5675C155.118 66.9775 158.464 67.4875 161.775 68.0775C162.111 68.1375 162.342 68.4625 162.281 68.8025C162.226 69.1025 161.961 69.3175 161.665 69.3175ZM92.2019 72.3175C91.9364 72.3175 91.6909 72.1475 91.6058 71.8775C91.5006 71.5475 91.6859 71.1975 92.0166 71.0975C95.1877 70.0975 98.4539 69.2075 101.73 68.4425C102.061 68.3625 102.407 68.5725 102.482 68.9075C102.562 69.2425 102.351 69.5775 102.016 69.6575C98.7695 70.4175 95.5283 71.3025 92.3923 72.2875C92.3272 72.3075 92.2671 72.3175 92.2019 72.3175ZM181.243 73.6975C181.188 73.6975 181.133 73.6925 181.078 73.6775C177.821 72.7975 174.555 71.9925 171.364 71.2775C171.023 71.2025 170.813 70.8675 170.888 70.5275C170.963 70.1925 171.279 69.9775 171.634 70.0575C174.846 70.7775 178.132 71.5875 181.408 72.4675C181.739 72.5625 181.939 72.9025 181.844 73.2375C181.769 73.5125 181.518 73.6975 181.243 73.6975ZM200.415 79.6476C200.344 79.6476 200.274 79.6376 200.204 79.6126C197.068 78.5076 193.867 77.4526 190.701 76.4676C190.37 76.3626 190.185 76.0126 190.29 75.6876C190.39 75.3576 190.746 75.1676 191.072 75.2776C194.253 76.2626 197.469 77.3276 200.62 78.4326C200.946 78.5476 201.121 78.9076 201.006 79.2326C200.916 79.4876 200.675 79.6476 200.415 79.6476ZM73.6513 79.8425C73.4258 79.8425 73.2054 79.7175 73.0952 79.4975C72.9399 79.1925 73.0601 78.8175 73.3707 78.6575C76.3214 77.1575 79.4073 75.7525 82.5383 74.4875C82.8489 74.3475 83.2196 74.5125 83.3499 74.8325C83.4801 75.1525 83.3248 75.5175 83.0042 75.6475C79.9083 76.8975 76.8574 78.2875 73.9368 79.7725C73.8466 79.8175 73.7464 79.8425 73.6513 79.8425ZM219.131 86.8925C219.05 86.8925 218.97 86.8775 218.885 86.8425C215.819 85.5425 212.698 84.2725 209.602 83.0775C209.282 82.9525 209.121 82.5875 209.247 82.2675C209.377 81.9475 209.737 81.7975 210.058 81.9125C213.164 83.1125 216.3 84.3875 219.376 85.6925C219.697 85.8275 219.842 86.1925 219.712 86.5125C219.606 86.7475 219.376 86.8925 219.131 86.8925ZM56.7188 90.4975C56.5285 90.4975 56.3481 90.4175 56.2229 90.2575C56.0125 89.9825 56.0626 89.5875 56.3381 89.3775C58.9682 87.3575 61.7485 85.4175 64.599 83.6225C64.8945 83.4425 65.2803 83.5275 65.4656 83.8175C65.651 84.1125 65.5608 84.4975 65.2702 84.6775C62.4498 86.4575 59.7046 88.3725 57.0996 90.3725C56.9894 90.4575 56.8541 90.4975 56.7188 90.4975ZM237.376 95.2525C237.285 95.2525 237.19 95.2325 237.1 95.1875C234.084 93.7025 231.043 92.2575 228.053 90.8875C227.742 90.7425 227.602 90.3675 227.747 90.0575C227.892 89.7425 228.263 89.6025 228.579 89.7475C231.574 91.1225 234.63 92.5775 237.656 94.0625C237.967 94.2175 238.092 94.5925 237.942 94.9025C237.831 95.1225 237.606 95.2525 237.376 95.2525ZM42.0857 104.133C41.9354 104.133 41.7901 104.083 41.6699 103.973C41.4094 103.748 41.3894 103.353 41.6198 103.093C43.8391 100.598 46.2036 98.1725 48.6533 95.8925C48.9038 95.6525 49.2996 95.6675 49.535 95.9175C49.7755 96.1725 49.7604 96.5675 49.505 96.8025C47.0903 99.0625 44.7508 101.458 42.5516 103.923C42.4314 104.063 42.2611 104.133 42.0857 104.133ZM255.145 104.583C255.039 104.583 254.939 104.558 254.839 104.503C251.929 102.878 248.963 101.273 246.032 99.7325C245.727 99.5725 245.606 99.1925 245.767 98.8875C245.932 98.5825 246.313 98.4625 246.613 98.6225C249.559 100.173 252.53 101.783 255.45 103.413C255.751 103.583 255.861 103.963 255.691 104.263C255.576 104.468 255.365 104.583 255.145 104.583ZM272.428 114.793C272.318 114.793 272.202 114.763 272.097 114.698C269.242 112.918 266.361 111.173 263.536 109.503C263.235 109.328 263.135 108.943 263.315 108.648C263.486 108.343 263.871 108.248 264.172 108.428C267.002 110.098 269.898 111.853 272.764 113.638C273.054 113.823 273.144 114.208 272.959 114.503C272.844 114.688 272.638 114.793 272.428 114.793ZM30.1778 120.213C30.0626 120.213 29.9524 120.183 29.8472 120.118C29.5567 119.938 29.4615 119.553 29.6418 119.258C31.4052 116.393 33.3038 113.583 35.2726 110.913C35.483 110.638 35.8738 110.583 36.1493 110.783C36.4298 110.988 36.4849 111.378 36.2796 111.653C34.3308 114.298 32.4572 117.073 30.7089 119.913C30.5936 120.108 30.3882 120.213 30.1778 120.213ZM289.21 125.803C289.085 125.803 288.96 125.763 288.854 125.693C286.079 123.778 283.279 121.898 280.538 120.098C280.248 119.908 280.168 119.523 280.358 119.233C280.548 118.953 280.934 118.868 281.225 119.053C283.975 120.858 286.78 122.743 289.561 124.658C289.851 124.858 289.921 125.248 289.726 125.528C289.601 125.703 289.405 125.803 289.21 125.803ZM305.446 137.528C305.316 137.528 305.186 137.488 305.07 137.403C302.385 135.378 299.68 133.373 297.025 131.453C296.744 131.248 296.684 130.858 296.885 130.583C297.09 130.298 297.481 130.238 297.761 130.443C300.422 132.363 303.137 134.373 305.827 136.408C306.102 136.613 306.153 137.008 305.947 137.283C305.822 137.443 305.637 137.528 305.446 137.528ZM21.0554 138.023C20.9752 138.023 20.8951 138.008 20.8149 137.978C20.4943 137.843 20.344 137.473 20.4793 137.158C21.7918 134.038 23.2196 130.968 24.7174 128.038C24.8727 127.728 25.2485 127.603 25.559 127.763C25.8696 127.918 25.9899 128.298 25.8346 128.603C24.3467 131.513 22.934 134.553 21.6315 137.643C21.5313 137.883 21.3009 138.023 21.0554 138.023ZM321.181 149.987C321.041 149.987 320.901 149.942 320.781 149.847C318.256 147.752 315.636 145.627 312.991 143.533C312.72 143.317 312.675 142.927 312.891 142.658C313.111 142.387 313.502 142.347 313.767 142.552C316.422 144.652 319.052 146.783 321.582 148.882C321.848 149.103 321.888 149.497 321.667 149.762C321.542 149.912 321.362 149.987 321.181 149.987ZM14.5078 156.938C14.4477 156.938 14.3926 156.933 14.3375 156.918C14.0068 156.823 13.8064 156.478 13.9016 156.143C14.8134 152.888 15.8153 149.658 16.8873 146.548C17.0026 146.223 17.3633 146.038 17.6839 146.158C18.0095 146.273 18.1848 146.628 18.0746 146.953C17.0076 150.043 16.0107 153.248 15.1089 156.483C15.0338 156.758 14.7783 156.938 14.5078 156.938ZM336.381 163.168C336.225 163.168 336.08 163.113 335.96 163.003C333.49 160.763 330.96 158.518 328.44 156.333C328.18 156.113 328.155 155.713 328.38 155.453C328.606 155.188 329.001 155.173 329.262 155.393C331.792 157.583 334.322 159.833 336.801 162.078C337.057 162.313 337.077 162.708 336.841 162.963C336.716 163.098 336.551 163.168 336.381 163.168ZM10.1895 176.493C10.1545 176.493 10.1194 176.488 10.0843 176.483C9.74367 176.428 9.51323 176.103 9.57334 175.763C10.1294 172.438 10.7706 169.123 11.477 165.903C11.5521 165.568 11.8828 165.358 12.2234 165.423C12.5591 165.498 12.7745 165.833 12.6993 166.168C11.998 169.368 11.3618 172.668 10.8057 175.968C10.7556 176.273 10.4901 176.493 10.1895 176.493ZM350.924 176.988C350.763 176.988 350.603 176.928 350.483 176.803C348.113 174.448 345.693 172.098 343.299 169.823C343.048 169.583 343.038 169.188 343.279 168.938C343.514 168.693 343.915 168.678 344.161 168.918C346.565 171.203 348.99 173.558 351.364 175.918C351.61 176.163 351.61 176.558 351.364 176.803C351.244 176.928 351.084 176.988 350.924 176.988ZM364.79 191.478C364.62 191.478 364.454 191.408 364.329 191.273C362.08 188.808 359.78 186.343 357.491 183.953C357.256 183.708 357.266 183.308 357.511 183.073C357.767 182.838 358.157 182.838 358.398 183.093C360.697 185.488 363.002 187.958 365.256 190.433C365.491 190.688 365.471 191.083 365.211 191.313C365.096 191.423 364.945 191.478 364.79 191.478ZM7.76986 196.367C7.75483 196.367 7.7398 196.367 7.71977 196.367C7.3741 196.337 7.11861 196.037 7.14366 195.697C7.40917 192.327 7.74481 188.962 8.14057 185.702C8.18065 185.362 8.46119 185.132 8.83691 185.157C9.18257 185.197 9.42304 185.507 9.38296 185.852C8.99221 189.097 8.65656 192.442 8.39105 195.792C8.37102 196.117 8.09549 196.367 7.76986 196.367ZM377.915 206.643C377.735 206.643 377.555 206.563 377.429 206.413C375.345 203.873 373.176 201.298 370.977 198.758C370.752 198.498 370.782 198.103 371.047 197.878C371.308 197.648 371.703 197.683 371.929 197.943C374.133 200.488 376.312 203.073 378.401 205.623C378.622 205.888 378.582 206.283 378.311 206.503C378.196 206.598 378.056 206.643 377.915 206.643ZM6.95836 216.382C6.61269 216.378 6.33215 216.097 6.33215 215.753C6.34718 212.397 6.42233 209.022 6.55258 205.717C6.56761 205.378 6.83311 205.092 7.20383 205.117C7.54949 205.132 7.82001 205.423 7.80498 205.768C7.67473 209.057 7.59959 212.417 7.58456 215.757C7.58456 216.102 7.30402 216.382 6.95836 216.382ZM390.194 222.498C389.998 222.498 389.808 222.413 389.688 222.243C387.719 219.548 385.695 216.853 383.671 214.243C383.461 213.968 383.511 213.578 383.787 213.363C384.057 213.153 384.448 213.198 384.663 213.478C386.697 216.098 388.726 218.803 390.7 221.508C390.9 221.788 390.84 222.178 390.565 222.378C390.449 222.463 390.319 222.498 390.194 222.498ZM7.52433 236.413C7.19369 236.413 6.91817 236.153 6.89813 235.823C6.69774 232.433 6.54745 229.053 6.45728 225.793C6.44726 225.448 6.71778 225.158 7.06344 225.148H7.08348C7.41913 225.148 7.69967 225.418 7.70968 225.758C7.79986 229.008 7.95015 232.368 8.15053 235.748C8.17057 236.093 7.90506 236.388 7.5594 236.413H7.52433ZM401.491 239.058C401.285 239.058 401.08 238.958 400.96 238.768C399.196 235.993 397.343 233.183 395.454 230.418C395.264 230.133 395.334 229.743 395.619 229.548C395.9 229.353 396.296 229.428 396.491 229.713C398.385 232.488 400.248 235.313 402.017 238.098C402.202 238.393 402.117 238.778 401.826 238.963C401.721 239.028 401.606 239.058 401.491 239.058ZM411.63 256.348C411.41 256.348 411.194 256.228 411.079 256.018C409.516 253.118 407.868 250.188 406.175 247.303C406.004 247.008 406.104 246.628 406.4 246.448C406.691 246.268 407.081 246.373 407.257 246.673C408.955 249.568 410.613 252.513 412.181 255.428C412.346 255.728 412.231 256.113 411.926 256.273C411.835 256.323 411.73 256.348 411.63 256.348ZM9.29282 256.373C8.97722 256.373 8.7067 256.138 8.67163 255.818C8.27587 252.453 7.93522 249.088 7.64466 245.838C7.6146 245.493 7.87009 245.188 8.21075 245.158C8.61653 245.123 8.862 245.383 8.89206 245.723C9.1776 248.968 9.52327 252.318 9.91402 255.678C9.95409 256.018 9.70862 256.328 9.36296 256.368C9.33791 256.373 9.31787 256.373 9.29282 256.373ZM420.392 274.363C420.151 274.363 419.921 274.223 419.816 273.988C418.493 270.943 417.085 267.888 415.638 264.913C415.487 264.603 415.618 264.228 415.928 264.078C416.234 263.923 416.61 264.053 416.765 264.363C418.223 267.363 419.635 270.428 420.968 273.488C421.103 273.808 420.958 274.173 420.642 274.313C420.562 274.343 420.477 274.363 420.392 274.363ZM12.1131 276.213C11.8126 276.213 11.5471 275.993 11.497 275.688C10.9309 272.343 10.4149 269.008 9.959 265.773C9.90891 265.433 10.1494 265.113 10.49 265.068C10.8106 265.013 11.1463 265.253 11.1964 265.598C11.6523 268.823 12.1682 272.148 12.7293 275.483C12.7894 275.823 12.559 276.143 12.2183 276.203C12.1833 276.208 12.1482 276.213 12.1131 276.213ZM427.465 293.093C427.2 293.093 426.954 292.928 426.869 292.663C425.872 289.553 424.765 286.388 423.573 283.243C423.453 282.918 423.613 282.558 423.939 282.438C424.259 282.298 424.62 282.473 424.745 282.798C425.948 285.963 427.06 289.153 428.062 292.278C428.167 292.608 427.986 292.963 427.656 293.068C427.591 293.088 427.526 293.093 427.465 293.093ZM15.8954 295.888C15.6048 295.888 15.3494 295.688 15.2842 295.393C14.5829 292.153 13.9066 288.843 13.2804 285.563C13.2102 285.223 13.4357 284.898 13.7763 284.833C14.107 284.743 14.4426 284.988 14.5077 285.328C15.1339 288.598 15.8052 291.898 16.5066 295.133C16.5817 295.468 16.3663 295.803 16.0257 295.873C15.9856 295.883 15.9405 295.888 15.8954 295.888ZM432.475 312.468C432.185 312.468 431.919 312.258 431.864 311.958C431.243 308.773 430.501 305.503 429.655 302.238C429.569 301.903 429.77 301.563 430.105 301.478C430.431 301.393 430.777 301.593 430.867 301.928C431.719 305.213 432.47 308.508 433.091 311.723C433.156 312.058 432.936 312.388 432.595 312.453C432.555 312.463 432.515 312.468 432.475 312.468ZM20.5594 315.373C20.2788 315.373 20.0284 315.183 19.9532 314.903C19.1066 311.673 18.29 308.428 17.5135 305.178C17.4334 304.838 17.6388 304.503 17.9744 304.423C18.3051 304.343 18.6507 304.548 18.7309 304.883C19.5124 308.128 20.3189 311.363 21.1655 314.588C21.2507 314.923 21.0553 315.263 20.7197 315.353C20.6646 315.363 20.6095 315.373 20.5594 315.373ZM434.955 332.308C434.624 332.308 434.349 332.048 434.329 331.713C434.158 328.448 433.863 325.108 433.442 321.793C433.397 321.453 433.642 321.138 433.983 321.098C434.359 321.068 434.639 321.298 434.684 321.638C435.105 324.983 435.411 328.353 435.581 331.648C435.601 331.993 435.336 332.288 434.99 332.308H434.955ZM26.1952 335.108C25.9297 335.108 25.6843 334.938 25.5991 334.668L25.4488 334.183C24.4719 331.008 23.5101 327.773 22.6034 324.573C22.5082 324.243 22.6985 323.898 23.0342 323.803C23.3798 323.713 23.7155 323.903 23.8057 324.233C24.7174 327.423 25.6742 330.653 26.6511 333.823L26.7914 334.298C26.8966 334.628 26.7112 334.973 26.3806 335.078C26.3205 335.098 26.2554 335.108 26.1952 335.108ZM434.629 352.308C434.614 352.308 434.604 352.308 434.589 352.308C434.243 352.283 433.983 351.983 434.008 351.638C434.238 348.368 434.399 345.018 434.474 341.678C434.479 341.333 434.724 341.083 435.115 341.068C435.456 341.073 435.731 341.358 435.726 341.708C435.651 345.068 435.491 348.438 435.255 351.728C435.235 352.058 434.955 352.308 434.629 352.308ZM32.4022 354.148C32.1467 354.148 31.9012 353.988 31.811 353.728C30.729 350.573 29.6669 347.403 28.6299 344.223C28.5247 343.898 28.7051 343.543 29.0357 343.438C29.3664 343.333 29.717 343.513 29.8222 343.838C30.8592 347.008 31.9162 350.173 32.9983 353.323C33.1085 353.648 32.9332 354.003 32.6076 354.118C32.5374 354.138 32.4723 354.148 32.4022 354.148ZM432.169 372.158C432.134 372.158 432.099 372.153 432.059 372.148C431.719 372.083 431.493 371.758 431.553 371.423C432.129 368.203 432.63 364.888 433.046 361.563C433.086 361.218 433.417 360.973 433.742 361.018C434.088 361.063 434.329 361.373 434.289 361.718C433.873 365.068 433.367 368.403 432.786 371.638C432.731 371.943 432.47 372.158 432.169 372.158ZM39.1901 372.968C38.9396 372.968 38.6992 372.812 38.609 372.562C37.4267 369.448 36.2695 366.318 35.1323 363.178C35.0121 362.853 35.1824 362.493 35.5081 362.373C35.8387 362.263 36.1894 362.428 36.3096 362.753C37.4418 365.888 38.599 369.013 39.7762 372.118C39.8965 372.443 39.7362 372.803 39.4156 372.923C39.3404 372.953 39.2653 372.968 39.1901 372.968ZM46.6044 391.588C46.3589 391.588 46.1285 391.443 46.0283 391.203C44.7408 388.128 43.4834 385.033 42.241 381.913C42.1107 381.593 42.2711 381.228 42.5917 381.103C42.9023 380.978 43.273 381.128 43.4032 381.448C44.6406 384.563 45.903 387.653 47.1805 390.723C47.3157 391.043 47.1654 391.408 46.8448 391.538C46.7647 391.573 46.6845 391.588 46.6044 391.588ZM427.516 391.603C427.46 391.603 427.4 391.598 427.335 391.578C427.005 391.478 426.819 391.128 426.919 390.798C427.871 387.638 428.748 384.398 429.514 381.178C429.599 380.843 429.92 380.638 430.271 380.713C430.606 380.798 430.817 381.133 430.737 381.468C429.96 384.713 429.078 387.973 428.117 391.158C428.036 391.428 427.786 391.603 427.516 391.603ZM54.6398 409.953C54.4044 409.953 54.1789 409.818 54.0737 409.588C52.6861 406.563 51.3134 403.508 49.9658 400.433C49.8306 400.118 49.9759 399.748 50.2915 399.608C50.6071 399.478 50.9778 399.613 51.118 399.933C52.4606 403.003 53.8232 406.048 55.2109 409.068C55.3562 409.383 55.2159 409.753 54.9053 409.898C54.8202 409.938 54.73 409.953 54.6398 409.953ZM420.592 410.368C420.507 410.368 420.422 410.353 420.337 410.313C420.021 410.178 419.881 409.808 420.016 409.493C421.349 406.473 422.601 403.363 423.753 400.248C423.874 399.928 424.229 399.758 424.56 399.878C424.88 399.998 425.046 400.358 424.926 400.683C423.768 403.823 422.501 406.953 421.163 409.993C421.058 410.228 420.833 410.368 420.592 410.368ZM63.3415 428.008C63.1111 428.008 62.8907 427.883 62.7804 427.668C61.2826 424.698 59.7997 421.698 58.3369 418.668C58.1866 418.358 58.3169 417.983 58.6325 417.833C58.9531 417.688 59.3188 417.813 59.4691 418.123C60.9269 421.143 62.3997 424.138 63.8976 427.103C64.0529 427.413 63.9327 427.788 63.6221 427.943C63.5319 427.988 63.4367 428.008 63.3415 428.008ZM411.435 428.168C411.324 428.168 411.214 428.143 411.114 428.083C410.814 427.903 410.718 427.523 410.894 427.228C412.592 424.363 414.22 421.423 415.728 418.483C415.888 418.173 416.259 418.053 416.57 418.213C416.88 418.373 417 418.748 416.845 419.053C415.322 422.013 413.684 424.978 411.971 427.863C411.855 428.058 411.645 428.168 411.435 428.168ZM400.253 444.768C400.123 444.768 399.988 444.728 399.872 444.643C399.602 444.438 399.547 444.043 399.752 443.768C401.761 441.118 403.715 438.393 405.558 435.658C405.754 435.373 406.139 435.293 406.43 435.488C406.716 435.683 406.791 436.073 406.595 436.358C404.742 439.113 402.778 441.858 400.754 444.523C400.629 444.683 400.444 444.768 400.253 444.768ZM72.7446 445.713C72.5242 445.713 72.3138 445.598 72.1985 445.393C70.6005 442.533 68.9874 439.568 67.3993 436.578C67.239 436.273 67.3492 435.893 67.6548 435.733C67.9654 435.583 68.3411 435.688 68.5014 435.993C70.0895 438.973 71.6976 441.933 73.2906 444.783C73.461 445.083 73.3508 445.468 73.0502 445.633C72.955 445.688 72.8498 445.713 72.7446 445.713ZM387.338 460.058C387.188 460.058 387.033 460.003 386.913 459.888C386.662 459.658 386.647 459.258 386.883 459.008C389.167 456.563 391.401 454.048 393.52 451.543C393.746 451.288 394.141 451.248 394.402 451.468C394.667 451.693 394.703 452.088 394.477 452.353C392.343 454.873 390.099 457.398 387.799 459.863C387.674 459.993 387.509 460.058 387.338 460.058ZM82.9141 462.988C82.7087 462.988 82.5033 462.883 82.3831 462.693C80.6447 459.888 78.8964 456.998 77.1881 454.103C77.0178 453.803 77.113 453.418 77.4135 453.243C77.7091 453.068 78.0948 453.173 78.2702 453.468C79.9734 456.358 81.7118 459.238 83.4501 462.033C83.6305 462.328 83.5403 462.713 83.2447 462.893C83.1445 462.958 83.0293 462.988 82.9141 462.988ZM373.006 474.053C372.831 474.053 372.66 473.983 372.535 473.843C372.305 473.588 372.33 473.193 372.585 472.963C375.1 470.713 377.555 468.423 379.894 466.143C380.14 465.903 380.54 465.913 380.776 466.153C381.021 466.403 381.016 466.798 380.766 467.038C378.416 469.328 375.947 471.633 373.422 473.893C373.301 473.998 373.151 474.053 373.006 474.053ZM93.9352 479.738C93.7348 479.738 93.5395 479.643 93.4192 479.468C91.5256 476.753 89.632 473.953 87.7934 471.148C87.598 470.863 87.6832 470.473 87.9738 470.283C88.2593 470.098 88.6451 470.178 88.8404 470.468C90.674 473.263 92.5626 476.048 94.4462 478.753C94.6466 479.038 94.5764 479.428 94.2909 479.623C94.1807 479.698 94.0605 479.738 93.9352 479.738ZM357.546 486.818C357.356 486.818 357.171 486.733 357.05 486.573C356.84 486.298 356.89 485.908 357.165 485.698C359.826 483.658 362.466 481.568 365.001 479.478C365.266 479.253 365.657 479.293 365.877 479.558C366.098 479.828 366.063 480.218 365.797 480.438C363.247 482.543 360.602 484.643 357.927 486.688C357.812 486.778 357.676 486.818 357.546 486.818ZM105.893 495.823C105.713 495.823 105.527 495.743 105.402 495.588C103.378 493.033 101.319 490.353 99.2805 487.618C99.0751 487.343 99.1352 486.948 99.4107 486.743C99.6912 486.543 100.082 486.598 100.292 486.873C102.316 489.598 104.365 492.268 106.384 494.808C106.6 495.078 106.554 495.473 106.284 495.688C106.169 495.778 106.033 495.823 105.893 495.823ZM341.23 498.473C341.029 498.473 340.834 498.373 340.709 498.193C340.518 497.908 340.594 497.518 340.884 497.328C343.67 495.463 346.44 493.548 349.12 491.638C349.396 491.433 349.791 491.503 349.992 491.783C350.192 492.063 350.132 492.458 349.851 492.658C347.161 494.573 344.381 496.493 341.581 498.368C341.475 498.438 341.35 498.473 341.23 498.473ZM324.262 509.163C324.047 509.163 323.841 509.053 323.721 508.858C323.546 508.563 323.641 508.178 323.942 507.998C326.857 506.263 329.733 504.508 332.483 502.773C332.779 502.598 333.164 502.678 333.35 502.968C333.53 503.263 333.445 503.648 333.154 503.833C330.389 505.568 327.508 507.333 324.583 509.073C324.483 509.133 324.372 509.163 324.262 509.163ZM118.928 511.053C118.763 511.053 118.593 510.983 118.472 510.853C116.243 508.448 113.994 505.918 111.789 503.343C111.569 503.083 111.594 502.683 111.86 502.463C112.125 502.243 112.521 502.268 112.741 502.533C114.935 505.098 117.175 507.608 119.389 510.003C119.624 510.258 119.609 510.653 119.354 510.888C119.234 510.998 119.083 511.053 118.928 511.053ZM306.794 519.033C306.568 519.033 306.353 518.913 306.243 518.708C306.077 518.403 306.193 518.023 306.493 517.858C309.449 516.268 312.374 514.658 315.27 513.023C315.571 512.853 315.951 512.958 316.127 513.258C316.292 513.558 316.187 513.938 315.886 514.113C312.986 515.748 310.05 517.363 307.089 518.958C306.994 519.008 306.894 519.033 306.794 519.033ZM133.196 525.133C133.045 525.133 132.895 525.078 132.78 524.973C130.32 522.773 127.855 520.453 125.461 518.078C125.21 517.833 125.21 517.438 125.456 517.193C125.696 516.948 126.092 516.948 126.337 517.188C128.722 519.553 131.172 521.853 133.616 524.043C133.872 524.273 133.892 524.668 133.662 524.928C133.536 525.063 133.366 525.133 133.196 525.133ZM288.96 528.218C288.729 528.218 288.504 528.093 288.398 527.873C288.243 527.563 288.373 527.183 288.679 527.033C291.685 525.543 294.671 524.043 297.631 522.518C297.932 522.363 298.307 522.483 298.473 522.788C298.628 523.093 298.513 523.473 298.202 523.633C295.237 525.158 292.251 526.663 289.235 528.153C289.145 528.198 289.05 528.218 288.96 528.218ZM270.84 536.853C270.604 536.853 270.379 536.718 270.274 536.488C270.128 536.178 270.264 535.803 270.579 535.663C273.62 534.258 276.651 532.838 279.657 531.408C279.962 531.268 280.348 531.393 280.493 531.703C280.644 532.013 280.508 532.388 280.198 532.538C277.182 533.973 274.151 535.388 271.1 536.793C271.02 536.833 270.93 536.853 270.84 536.853ZM148.861 537.628C148.74 537.628 148.615 537.588 148.505 537.513C145.825 535.633 143.115 533.603 140.454 531.473C140.184 531.258 140.139 530.863 140.354 530.593C140.58 530.328 140.97 530.283 141.236 530.498C143.876 532.608 146.561 534.628 149.221 536.488C149.507 536.688 149.577 537.078 149.377 537.363C149.256 537.533 149.061 537.628 148.861 537.628ZM252.565 545.028C252.324 545.028 252.094 544.888 251.989 544.653C251.853 544.338 251.999 543.968 252.314 543.828C255.38 542.493 258.436 541.148 261.472 539.788C261.787 539.648 262.158 539.788 262.298 540.103C262.439 540.418 262.298 540.788 261.988 540.928C258.942 542.288 255.886 543.638 252.815 544.973C252.735 545.008 252.65 545.028 252.565 545.028ZM166.074 547.873C165.978 547.873 165.883 547.853 165.793 547.808C162.852 546.363 159.877 544.748 156.946 542.993C156.651 542.818 156.555 542.433 156.731 542.138C156.906 541.843 157.292 541.743 157.592 541.923C160.493 543.653 163.439 545.258 166.349 546.688C166.66 546.843 166.785 547.213 166.635 547.523C166.525 547.748 166.299 547.873 166.074 547.873ZM234.064 552.783C233.809 552.783 233.568 552.623 233.478 552.368C233.358 552.043 233.528 551.683 233.854 551.568C235.307 551.043 236.794 550.463 238.277 549.838C239.885 549.158 241.499 548.478 243.107 547.793C243.422 547.663 243.793 547.803 243.928 548.118C244.063 548.438 243.918 548.808 243.603 548.938C241.989 549.628 240.376 550.313 238.763 550.993C237.26 551.623 235.752 552.213 234.28 552.743C234.21 552.768 234.134 552.783 234.064 552.783ZM184.785 554.938C184.734 554.938 184.679 554.928 184.629 554.918C181.448 554.078 178.222 553.038 175.036 551.828C174.71 551.708 174.545 551.343 174.67 551.023C174.795 550.698 175.156 550.538 175.477 550.663C178.628 551.853 181.814 552.883 184.945 553.708C185.281 553.798 185.481 554.138 185.391 554.468C185.316 554.753 185.065 554.938 184.785 554.938ZM214.572 557.318C214.251 557.318 213.981 557.078 213.946 556.758C213.911 556.413 214.161 556.108 214.502 556.068C217.773 555.723 221.074 555.163 224.311 554.403C224.661 554.318 224.987 554.538 225.062 554.868C225.147 555.203 224.937 555.543 224.601 555.618C221.31 556.393 217.958 556.958 214.637 557.313C214.612 557.318 214.592 557.318 214.572 557.318ZM204.553 557.748H204.543C201.221 557.683 197.845 557.403 194.498 556.923C194.158 556.873 193.922 556.558 193.972 556.218C194.017 555.873 194.303 555.628 194.679 555.688C197.97 556.163 201.296 556.433 204.568 556.498C204.908 556.508 205.189 556.793 205.179 557.138C205.174 557.478 204.893 557.748 204.553 557.748Z" fill="#D8D5DB"/>
<mask id="mask1" mask-type="alpha" maskUnits="userSpaceOnUse" x="46" y="82" width="366" height="492">
<path fill-rule="evenodd" clip-rule="evenodd" d="M46.8398 82.1295H411.228V573.31H46.8398V82.1295Z" fill="white"/>
</mask>
<g mask="url(#mask1)">
<path fill-rule="evenodd" clip-rule="evenodd" d="M386.291 494.68C383.486 495.43 380.681 496.88 378.426 499.43C377.124 500.93 375.421 503.73 373.918 506.68C373.567 496.58 373.216 487.98 372.866 482.68C373.817 482.58 374.368 482.58 374.368 482.58C374.368 481.38 374.368 480.18 374.318 478.88C374.068 454.53 371.413 412.18 367.906 369.98C369.159 372.58 370.361 374.98 371.513 377.13C371.563 377.88 371.563 378.63 371.713 379.43C373.567 389.53 382.835 445.43 385.54 479.13C386.041 485.18 386.291 490.48 386.291 494.68ZM408.584 371.48V371.38C405.679 361.93 395.91 333.78 384.788 305.83L397.112 301.63C397.112 301.63 361.043 237.58 339.952 223.48C339.902 223.43 339.852 223.43 339.802 223.38C332.388 216.48 321.567 211.98 305.386 210.13C305.286 196.78 306.288 174.28 307.44 157.03C315.756 155.13 319.764 145.38 320.315 143.23C321.467 138.83 320.415 135.18 318.261 132.83C318.912 127.38 320.014 116.78 319.714 107.68C319.463 99.3295 318.111 92.2795 314.203 91.4295C314.253 91.2795 314.353 91.1795 314.403 91.0795C315.706 86.9295 313.251 82.3295 313.151 82.1295L310.947 83.3295C311.548 84.3795 312.8 87.6795 311.999 90.2795C308.292 86.1795 296.77 84.5295 283.845 84.7795C265.76 85.0795 245.02 89.2295 239.409 95.7295C235.502 100.23 236.654 102.68 240.712 103.78C240.111 107.98 239.86 111.63 239.76 114.98C239.159 116.53 238.608 118.13 238.057 119.83C236.604 120.83 235.201 122.28 234.149 124.53L236.454 125.58C236.504 125.48 236.554 125.43 236.604 125.33C236.003 127.88 235.452 130.48 235.051 133.33C230.542 164.33 223.178 195.18 253.987 195.53C253.937 199.03 253.737 202.43 253.386 205.63C253.136 208.18 252.785 210.58 252.334 212.73C240.612 215.58 231.444 220.08 225.082 226.13C202.438 244.78 173.834 304.68 173.834 304.68L183.452 309.43C176.338 323.23 169.325 337.33 164.065 348.78C139.718 331.98 96.936 300.83 84.3118 287.18C84.3118 287.13 84.2617 287.13 84.2116 287.08C84.7125 281.83 83.7607 273.33 82.358 268.53C82.358 268.43 82.358 268.33 82.3079 268.18C82.2077 267.93 82.1075 267.78 82.0574 267.58C81.9572 267.28 81.8571 266.93 81.7569 266.68C81.5064 266.03 81.306 265.58 81.1056 265.18C77.7492 257.78 72.439 254.88 69.2829 245.03C67.6297 239.78 63.572 241.93 62.019 245.43L50.0961 218.83L46.8398 220.28L62.1693 254.63C58.5623 253.03 55.4063 252.08 53.2522 252.83C50.2965 253.83 47.0402 268.68 48.4429 273.98C49.8456 279.23 64.2232 296.13 69.5835 299.03C69.9843 299.23 70.4351 299.38 70.8359 299.43C79.5025 311.53 136.963 379.63 160.057 391.43C174.385 398.68 185.155 392.43 188.712 383.13C193.321 375.73 201.787 361.28 211.005 344.58C207.999 391.08 202.238 443.48 191.367 480.23C192.369 480.38 193.421 480.53 194.473 480.68C191.417 495.93 189.163 515.98 187.56 536.33C198.882 541.13 210.404 545.48 222.026 549.38C273.876 566.88 327.679 575.63 374.469 572.78C375.22 570.48 375.571 568.079 375.521 565.53C375.27 555.53 374.97 543.28 374.669 531.18C377.174 537.68 380.43 543.03 383.035 544.38C385.79 545.78 398.815 537.83 401.671 533.08C404.476 528.48 406.63 506.38 404.977 500.48C404.877 500.08 404.576 499.78 404.376 499.43C404.977 496.13 405.879 488.93 406.881 479.53C410.087 447.829 413.894 390.88 408.584 371.48Z" fill="#D1CDD3"/>
</g>
<path fill-rule="evenodd" clip-rule="evenodd" d="M280.645 275.571L247.987 254.301C247.987 254.301 215.53 313.916 199.524 348.796C175.192 331.981 132.41 300.846 119.781 287.166C119.746 287.131 119.711 287.111 119.676 287.076C120.172 281.816 119.22 273.341 117.832 268.536C117.802 268.411 117.797 268.311 117.752 268.176C117.682 267.951 117.587 267.771 117.512 267.556C117.411 267.276 117.321 266.921 117.221 266.681C116.955 266.036 116.75 265.566 116.565 265.161C113.208 257.806 107.888 254.866 104.752 245.046C102.568 238.191 96.2708 243.941 96.8919 248.886C96.8919 248.886 97.8287 252.096 98.8858 255.186C94.7228 253.206 91.1259 252.006 88.7012 252.821C85.7656 253.806 82.4843 268.676 83.892 273.991C85.2747 279.221 99.6723 296.131 105.063 299.041C105.453 299.251 105.864 299.366 106.285 299.431C114.977 311.546 172.437 379.651 195.536 391.411C209.844 398.696 220.589 392.421 224.181 383.141C235.102 365.446 268.151 307.856 280.645 275.571Z" fill="#FFAD69"/>
<path fill-rule="evenodd" clip-rule="evenodd" d="M285.089 238.945C290.039 263.795 270.141 334.51 270.141 334.51L209.274 304.695C209.274 304.695 272.034 173.39 285.089 238.945Z" fill="#EA3939"/>
<path fill-rule="evenodd" clip-rule="evenodd" d="M410.99 565.529C410.99 566.329 410.99 567.129 410.89 567.929C399.418 570.429 387.194 572.079 374.47 572.779C327.68 575.629 273.877 566.879 222.027 549.379C223.831 522.679 226.636 494.829 230.944 476.029L374.319 478.879L385.541 479.129L406.882 479.529L408.134 479.579C409.136 490.979 410.339 537.129 410.99 565.529Z" fill="#232323"/>
<path fill-rule="evenodd" clip-rule="evenodd" d="M329.099 209.297C368.445 210.592 381.745 223.847 388.528 246.772C396.228 272.802 409.794 430.022 409.794 482.557C409.794 482.557 292.048 490.882 226.818 480.212C247.267 411.262 249.481 287.277 249.892 250.342C250.198 222.627 279.218 207.652 329.099 209.297Z" fill="#FF4E4A"/>
<path fill-rule="evenodd" clip-rule="evenodd" d="M294.438 145.007C290.561 142.097 270.342 144.737 276.168 103.652C278.287 88.662 292.394 98.667 302.378 100.667C312.363 102.667 306.015 145.747 306.015 145.747L294.438 145.007Z" fill="#232323"/>
<path fill-rule="evenodd" clip-rule="evenodd" d="M344.779 135.166C343.101 146.056 339.744 204.976 341.142 218.656C342.54 232.341 276.232 236.251 284.904 221.171C293.581 206.091 287.424 156.106 287.424 156.106L344.779 135.166Z" fill="#FFAD69"/>
<path fill-rule="evenodd" clip-rule="evenodd" d="M340.187 136.831L287.431 156.111C287.431 156.111 290.993 185.226 288.844 205.721C329.071 202.616 339.396 151.906 340.077 142.141C340.187 140.301 340.243 138.526 340.187 136.831Z" fill="#D88344"/>
<path fill-rule="evenodd" clip-rule="evenodd" d="M270.493 133.313C265.604 166.948 257.303 200.483 298.151 194.963C339.005 189.443 345.352 137.168 345.232 127.308C344.595 74.6925 280.107 67.1725 270.493 133.313Z" fill="#FFAD69"/>
<path fill-rule="evenodd" clip-rule="evenodd" d="M349.637 91.4105C349.687 91.2805 349.797 91.1905 349.842 91.0605C351.169 86.9355 348.725 82.3405 348.62 82.1455L346.415 83.3305C346.435 83.3705 348.439 87.1755 347.457 90.2705C338.51 80.4055 284.461 84.6105 274.848 95.7555C262.635 109.916 300.197 103.531 321.362 99.9555C324.328 112.326 337.764 132.811 341.636 135.721L353.213 136.466C353.213 136.466 359.531 93.5805 349.637 91.4105Z" fill="#232323"/>
<path fill-rule="evenodd" clip-rule="evenodd" d="M439.832 499.414C442.427 485.024 450.973 396.629 444.055 371.499C444.045 371.459 444.05 371.419 444.04 371.374C439.211 355.644 415.23 287.839 397.866 255.734L360.449 266.694C360.449 266.694 391.765 348.264 406.949 377.114C406.994 377.889 406.994 378.649 407.144 379.449C409.378 391.349 421.862 466.854 421.722 494.664C418.957 495.434 416.141 496.884 413.902 499.434C411.052 502.684 406.082 512.018 406.433 516.159C407.43 527.974 414.007 542.049 418.511 544.374C421.266 545.794 434.251 537.809 437.102 533.104C439.907 528.474 442.071 506.389 440.418 500.499C440.308 500.094 440.037 499.769 439.832 499.414Z" fill="#FFAD69"/>
<path fill-rule="evenodd" clip-rule="evenodd" d="M375.409 223.486C396.515 237.566 432.544 301.611 432.544 301.611L368.386 323.486C368.386 323.486 319.732 186.346 375.409 223.486Z" fill="#FF4E4A"/>
<path fill-rule="evenodd" clip-rule="evenodd" d="M304.893 131.647C305.023 133.287 304.136 134.692 302.904 134.792C301.671 134.887 300.569 133.642 300.439 132.002C300.304 130.367 301.196 128.957 302.428 128.862C303.655 128.762 304.757 130.007 304.893 131.647Z" fill="#232323"/>
<path fill-rule="evenodd" clip-rule="evenodd" d="M278.871 132.336C279.001 133.976 278.115 135.381 276.882 135.481C275.655 135.576 274.548 134.331 274.418 132.696C274.282 131.056 275.174 129.646 276.406 129.551C277.634 129.451 278.741 130.696 278.871 132.336Z" fill="#232323"/>
<path fill-rule="evenodd" clip-rule="evenodd" d="M311.292 122.446C307.81 117.111 301.818 118.381 301.758 118.391L301.207 115.951C301.523 115.886 308.967 114.311 313.391 121.081L311.292 122.446Z" fill="#232323"/>
<path fill-rule="evenodd" clip-rule="evenodd" d="M271.902 125.561L269.627 124.521C273.004 117.166 280.593 117.641 280.914 117.656L280.739 120.151C280.503 120.136 274.547 119.821 271.902 125.561Z" fill="#232323"/>
<path fill-rule="evenodd" clip-rule="evenodd" d="M296.53 162.617C294.866 162.617 293.814 162.432 293.774 162.422L294.23 159.967C294.691 160.052 305.687 161.912 311.814 151.737L313.958 153.027C308.903 161.417 300.763 162.617 296.53 162.617Z" fill="#232323"/>
<path fill-rule="evenodd" clip-rule="evenodd" d="M277.271 151.222L283.643 129.542L286.043 130.242L280.628 148.677L289.4 148.562L289.435 151.062L277.271 151.222Z" fill="#D88344"/>
<path fill-rule="evenodd" clip-rule="evenodd" d="M114.982 284.682L111.706 286.142L82.2994 220.287L85.5707 218.827L114.982 284.682Z" fill="#232323"/>
<path fill-rule="evenodd" clip-rule="evenodd" d="M334.872 139.446C331.18 147.746 326.561 155.776 338.149 157.266C349.736 158.761 355.126 145.776 355.782 143.231C359.284 129.661 342.126 123.126 334.872 139.446Z" fill="#FFAD69"/>
<path fill-rule="evenodd" clip-rule="evenodd" d="M161.536 0.00201416H43.6552C39.5473 0.00201416 36.2159 3.32201 36.2159 7.42201V49.317C36.2159 53.417 39.5473 56.742 43.6552 56.742H50.834L58.9295 67.537C60.728 69.937 64.5002 69.222 65.2968 66.332L67.9218 56.742H161.536C165.644 56.742 168.971 53.417 168.971 49.317V7.42201C168.971 3.32201 165.644 0.00201416 161.536 0.00201416Z" fill="#4D8DFF"/>
<mask id="mask2" mask-type="alpha" maskUnits="userSpaceOnUse" x="0" y="0" width="521" height="574">
<path fill-rule="evenodd" clip-rule="evenodd" d="M0 573.31H520.785V0H0V573.31Z" fill="white"/>
</mask>
<g mask="url(#mask2)">
<path fill-rule="evenodd" clip-rule="evenodd" d="M47.7968 13.495H152.022V10.995H47.7968V13.495Z" fill="white"/>
<path fill-rule="evenodd" clip-rule="evenodd" d="M47.7968 25.325H116.619V22.825H47.7968V25.325Z" fill="white"/>
<path fill-rule="evenodd" clip-rule="evenodd" d="M47.7968 37.155H133.822V34.655H47.7968V37.155Z" fill="white"/>
<path fill-rule="evenodd" clip-rule="evenodd" d="M133.822 140.193H43.6542C39.5464 140.193 36.22 143.518 36.22 147.613V189.508C36.22 193.608 39.5464 196.933 43.6542 196.933H50.833L58.9286 207.728C60.727 210.128 64.5043 209.413 65.2958 206.523L67.9208 196.933H133.822C137.93 196.933 141.257 193.608 141.257 189.508V147.613C141.257 143.518 137.93 140.193 133.822 140.193Z" fill="#FF4E4A"/>
<path fill-rule="evenodd" clip-rule="evenodd" d="M47.7968 153.685H95.7738V151.185H47.7968V153.685Z" fill="white"/>
<path fill-rule="evenodd" clip-rule="evenodd" d="M105.703 153.685H122.245V151.185H105.703V153.685Z" fill="white"/>
<path fill-rule="evenodd" clip-rule="evenodd" d="M47.7968 165.515H81.8772V163.015H47.7968V165.515Z" fill="white"/>
<path fill-rule="evenodd" clip-rule="evenodd" d="M47.7968 177.345H113.638V174.845H47.7968V177.345Z" fill="white"/>
<path fill-rule="evenodd" clip-rule="evenodd" d="M103.627 70.058H213.408C217.511 70.058 220.837 73.383 220.837 77.478V119.378C220.837 123.473 217.511 126.798 213.408 126.798H206.224L198.129 137.598C196.33 139.993 192.553 139.278 191.767 136.388L189.137 126.798H103.627C99.5195 126.798 96.1931 123.473 96.1931 119.378V77.478C96.1931 73.383 99.5195 70.058 103.627 70.058Z" fill="#FFC84D"/>
<path fill-rule="evenodd" clip-rule="evenodd" d="M165.257 83.55H209.262V81.05H165.257V83.55Z" fill="white"/>
<path fill-rule="evenodd" clip-rule="evenodd" d="M113.643 95.385H209.262V92.885H113.643V95.385Z" fill="white"/>
<path fill-rule="evenodd" clip-rule="evenodd" d="M162.281 107.215H209.262V104.715H162.281V107.215Z" fill="white"/>
<path fill-rule="evenodd" clip-rule="evenodd" d="M132.83 107.215H154.336V104.715H132.83V107.215Z" fill="white"/>
<path fill-rule="evenodd" clip-rule="evenodd" d="M294.003 276.82C274.851 276.82 259.266 292.375 259.266 311.49C259.266 330.61 274.851 346.165 294.003 346.165C313.16 346.165 328.745 330.61 328.745 311.49C328.745 292.375 313.16 276.82 294.003 276.82ZM294.003 348.665C273.468 348.665 256.761 331.99 256.761 311.49C256.761 290.995 273.468 274.32 294.003 274.32C314.542 274.32 331.249 290.995 331.249 311.49C331.249 331.99 314.542 348.665 294.003 348.665Z" fill="white"/>
</g>
</svg>
