<svg width="0" height="0" class="hidden">
  <symbol xmlns="http://www.w3.org/2000/svg" viewBox="0 0 20 20" id="icon-likes">
    <path
      d="M18.763 10.51c.394-.52.612-1.158.612-1.822 0-1.052-.588-2.048-1.535-2.604a1.586 1.586 0 00-.804-.218h-5.62l.14-2.88a2.509 2.509 0 00-.691-1.861A2.499 2.499 0 009.039.342c-1.219 0-2.297.82-2.62 1.995L4.405 9.626h-3.03a.75.75 0 00-.75.75v8.531c0 .415.335.75.75.75h14.093c.216 0 .427-.042.621-.127a3.014 3.014 0 001.709-3.642 3.016 3.016 0 00.485-2.688c.394-.52.611-1.158.611-1.821a3.2 3.2 0 00-.13-.87zm-16.45 7.46v-6.657H4.21v6.657H2.312zm14.915-8.274l-.513.445.326.596a1.338 1.338 0 01-.298 1.648l-.513.445.325.595a1.338 1.338 0 01-.298 1.648l-.512.445.325.595a1.332 1.332 0 01-.626 1.854H5.711v-6.729L8.043 2.79a1.034 1.034 0 01.989-.757.833.833 0 01.837.872l-.225 4.65h7.368c.418.255.675.687.675 1.134 0 .387-.168.753-.459 1.008z"
      ></path>
  </symbol>
  <symbol xmlns="http://www.w3.org/2000/svg" viewBox="0 0 48 13" id="icon-logo">
    <path
      d="M.992.727h4.383c1.125 0 2.04.349 2.742 1.046.703.693 1.055 1.602 1.055 2.727 0 1.12-.362 2.029-1.086 2.727-.719.697-1.651 1.046-2.797 1.046H3.008V12H.992V.727zm2.016 1.648v4.273h1.828c.724 0 1.286-.187 1.687-.562.401-.375.602-.904.602-1.586 0-.677-.2-1.2-.602-1.57-.395-.37-.955-.555-1.68-.555H3.009zM10.5 12V3.719h1.945V12H10.5zm1.734-9.672a1.055 1.055 0 01-.765.305 1.055 1.055 0 01-1.078-1.055c0-.297.104-.547.312-.75.209-.208.464-.312.766-.312s.557.104.765.312c.214.203.32.453.32.75 0 .292-.106.542-.32.75zm3.868 4.844l3.117-3.453h2.242L18.148 7.28 21.602 12h-2.25l-2.618-3.54-.656.665V12h-1.945V.727h1.945v6.445h.024zm9.265 3.492c.557 0 1.026-.164 1.406-.492.386-.333.579-.748.579-1.242v-.633l-1.915.117c-.468.031-.833.149-1.093.352a.949.949 0 00-.383.789c0 .338.128.61.383.812.26.198.601.297 1.023.297zm-.586 1.469c-.807 0-1.471-.232-1.992-.695-.516-.464-.773-1.066-.773-1.805 0-.735.27-1.315.812-1.742.547-.427 1.326-.672 2.336-.735l2.188-.125v-.593c0-.433-.139-.769-.415-1.008-.27-.24-.648-.36-1.132-.36-.453 0-.823.102-1.11.305-.286.203-.46.48-.523.828h-1.805c.042-.786.378-1.424 1.008-1.914.635-.495 1.471-.742 2.508-.742 1.026 0 1.846.25 2.46.75.62.5.93 1.167.93 2V12h-1.875v-1.32h-.039a2.609 2.609 0 01-1.062 1.062 3.1 3.1 0 01-1.516.39zm9.157 0c-1.047 0-1.883-.386-2.508-1.156-.62-.771-.93-1.813-.93-3.125 0-1.308.31-2.347.93-3.118.625-.77 1.46-1.156 2.508-1.156.583 0 1.098.138 1.546.414.453.276.792.649 1.016 1.117h.047V.727h1.945V12h-1.906v-1.414h-.031c-.23.474-.576.851-1.04 1.133-.458.276-.984.414-1.578.414zm.585-6.953c-.625 0-1.12.242-1.484.726-.364.48-.547 1.13-.547 1.953 0 .829.18 1.482.54 1.961.364.48.861.72 1.491.72.615 0 1.107-.243 1.477-.727.37-.485.555-1.136.555-1.954 0-.812-.185-1.46-.555-1.945a1.759 1.759 0 00-1.477-.734zm12.946-1.461V12h-1.875v-1.438h-.04c-.458 1.058-1.301 1.586-2.53 1.586-.902 0-1.618-.273-2.149-.82-.526-.552-.79-1.305-.79-2.258V3.72h1.946v4.96c0 .594.14 1.048.422 1.36.287.313.703.469 1.25.469.557 0 1-.182 1.328-.547.328-.365.492-.849.492-1.453v-4.79h1.946z"
      fill="#fff"></path>
  </symbol>
  <symbol xmlns="http://www.w3.org/2000/svg" viewBox="0 0 20 20" id="icon-save">
    <path
      d="M18.937 4.874l-3.811-3.81A1.494 1.494 0 0014.5.687V.625H1.375a.75.75 0 00-.75.75v17.25c0 .415.335.75.75.75h17.25a.75.75 0 00.75-.75V5.934c0-.399-.157-.779-.438-1.06zM7 2.313h6V4.75H7V2.312zm10.688 15.374H2.313V2.313H5.5V5.5c0 .415.335.75.75.75h7.5a.75.75 0 00.75-.75V2.823l3.188 3.188v11.677zM10 8.36a3.376 3.376 0 10.002 6.752A3.376 3.376 0 0010 8.36zm0 5.25a1.875 1.875 0 11-.001-3.749A1.875 1.875 0 0110 13.61z"
      ></path>
  </symbol>
  <symbol xmlns="http://www.w3.org/2000/svg" viewBox="0 0 14 14" id="icon-search">
    <path
      d="M13.213 12.352L9.155 8.294c.63-.814.97-1.81.97-2.857a4.66 4.66 0 00-1.373-3.314A4.653 4.653 0 005.437.75a4.66 4.66 0 00-3.314 1.373A4.65 4.65 0 00.75 5.437c0 1.252.49 2.43 1.373 3.315a4.65 4.65 0 003.314 1.373 4.65 4.65 0 002.855-.969l4.058 4.056a.129.129 0 00.181 0l.681-.68a.129.129 0 000-.18zm-5.3-4.44a3.481 3.481 0 01-2.476 1.026 3.481 3.481 0 01-2.475-1.026 3.481 3.481 0 01-1.025-2.474 3.48 3.48 0 011.025-2.475 3.481 3.481 0 012.475-1.026c.935 0 1.815.363 2.475 1.025a3.481 3.481 0 011.026 2.475c0 .935-.365 1.815-1.026 2.475z"
      fill="#FA8C16"></path>
  </symbol>
  <symbol xmlns="http://www.w3.org/2000/svg" viewBox="0 0 18 20" id="icon-share">
    <path
      d="M14.625 13.563a2.8 2.8 0 00-1.767.625l-4.856-3.513a3.766 3.766 0 000-1.35l4.856-3.513a2.8 2.8 0 001.767.625 2.815 2.815 0 002.813-2.812A2.815 2.815 0 0014.624.812a2.815 2.815 0 00-2.702 3.593L7.31 7.745A3.749 3.749 0 00.562 10a3.749 3.749 0 006.748 2.255l4.613 3.34a2.815 2.815 0 002.702 3.593 2.815 2.815 0 002.813-2.813 2.815 2.815 0 00-2.813-2.813zm0-11.157a1.22 1.22 0 11-.001 2.439 1.22 1.22 0 01.001-2.439zM4.312 12.062A2.066 2.066 0 012.25 10c0-1.137.926-2.063 2.063-2.063 1.136 0 2.062.926 2.062 2.063a2.066 2.066 0 01-2.063 2.063zm10.313 5.532a1.22 1.22 0 11.001-2.439 1.22 1.22 0 01-.001 2.439z"
      ></path>
  </symbol>
  <symbol xmlns="http://www.w3.org/2000/svg" viewBox="0 0 22 22" id="icon-comments">
    <path
      d="M9.875 11a1.125 1.125 0 102.25 0 1.125 1.125 0 00-2.25 0zm4.688 0a1.125 1.125 0 102.25 0 1.125 1.125 0 00-2.25 0zm-9.375 0a1.125 1.125 0 102.25 0 1.125 1.125 0 00-2.25 0zm15.497-4.069A10.503 10.503 0 0011 .5h-.047A10.475 10.475 0 00.5 11.05a10.533 10.533 0 001.125 4.684v3.563a1.078 1.078 0 001.078 1.078h3.565a10.533 10.533 0 004.685 1.125h.05c1.403 0 2.765-.272 4.047-.804a10.417 10.417 0 003.347-2.231 10.475 10.475 0 003.103-7.418 10.46 10.46 0 00-.815-4.116zm-3.542 10.266A8.673 8.673 0 0111 19.719h-.04a8.75 8.75 0 01-4.057-1.02l-.197-.105h-3.3v-3.3l-.105-.197a8.75 8.75 0 01-1.02-4.057 8.665 8.665 0 012.522-6.183 8.653 8.653 0 016.16-2.576h.04c1.171 0 2.308.228 3.38.678a8.664 8.664 0 012.788 1.875 8.683 8.683 0 012.552 6.206 8.685 8.685 0 01-2.58 6.157z"
      ></path>
  </symbol>
    <symbol xmlns="http://www.w3.org/2000/svg" viewBox="0 0 24 24" id="icon-poweroff">
    <path d="M16.537 2.927a.188.188 0 00-.272.17V4.6c0 .129.068.248.176.319a8.255 8.255 0 011.458 1.167 8.319 8.319 0 012.442 5.906 8.33 8.33 0 01-2.442 5.906 8.274 8.274 0 01-2.653 1.79 8.265 8.265 0 01-3.246.657c-1.125 0-2.22-.22-3.246-.656A8.274 8.274 0 016.1 17.9a8.32 8.32 0 01-2.442-5.906A8.329 8.329 0 016.1 6.086 8.473 8.473 0 017.558 4.92a.374.374 0 00.176-.32V3.095c0-.14-.148-.23-.272-.169a10.14 10.14 0 00-5.587 8.941c-.066 5.597 4.511 10.247 10.106 10.259 5.601.012 10.144-4.53 10.144-10.134 0-3.966-2.274-7.4-5.588-9.064zM11.25 13.125h1.5a.188.188 0 00.187-.188V2.063a.188.188 0 00-.187-.188h-1.5a.188.188 0 00-.188.188v10.874c0 .104.085.188.188.188z"></path>
  </symbol>
  <svg width="0" height="0" class="hidden">
  <symbol xmlns="http://www.w3.org/2000/svg" viewBox="0 0 12 14" id="icon-fire">
    <path d="M11.033 6.331a5.43 5.43 0 00-1.295-1.8l-.455-.417a.127.127 0 00-.203.052l-.203.583c-.127.365-.36.739-.69 1.106a.098.098 0 01-.064.031.086.086 0 01-.067-.023.092.092 0 01-.031-.075c.058-.94-.223-2.002-.84-3.157-.508-.959-1.216-1.707-2.1-2.23L4.438.023a.125.125 0 00-.187.114l.034.75c.023.513-.036.966-.177 1.342-.171.461-.418.89-.734 1.274a4.62 4.62 0 01-.742.72 5.51 5.51 0 00-1.567 1.899 5.434 5.434 0 00-.133 4.535 5.49 5.49 0 002.928 2.9 5.5 5.5 0 002.14.429c.742 0 1.46-.144 2.14-.427a5.445 5.445 0 001.747-1.167A5.408 5.408 0 0011.5 8.533c0-.762-.156-1.503-.467-2.202zM9.14 11.633A4.43 4.43 0 016 12.921a4.43 4.43 0 01-3.14-1.288 4.34 4.34 0 01-1.297-3.1c0-.68.153-1.331.454-1.937a4.42 4.42 0 011.263-1.53c.339-.26.646-.557.915-.888.39-.476.697-1.007.91-1.578a3.75 3.75 0 00.189-.726c.376.347.692.765.956 1.256.522.978.763 1.848.716 2.589a1.156 1.156 0 002.012.847 5.09 5.09 0 00.538-.713c.218.28.401.585.546.913a4.33 4.33 0 01.376 1.767c0 1.17-.461 2.272-1.297 3.1z"></path>
  </symbol>
    <symbol xmlns="http://www.w3.org/2000/svg" viewBox="0 0 14 12" id="icon-camera">
    <path d="M13.25 2.723l-2 1.152V1.5a1 1 0 00-1-1H1a1 1 0 00-1 1v9a1 1 0 001 1h9.25a1 1 0 001-1V8.125l2 1.152a.5.5 0 00.75-.432V3.156a.5.5 0 00-.75-.433zm-3.125 7.652h-9v-8.75h9v8.75zm2.75-2.61l-1.625-.934v-1.66l1.625-.937v3.532zM2.25 3.626H4a.125.125 0 00.125-.125v-.75A.125.125 0 004 2.625H2.25a.125.125 0 00-.125.125v.75c0 .069.056.125.125.125z"></path>
  </symbol>
  <symbol xmlns="http://www.w3.org/2000/svg" viewBox="0 0 14 12" id="icon-picture">
    <path d="M13.5.5H.5A.5.5 0 000 1v10a.5.5 0 00.5.5h13a.5.5 0 00.5-.5V1a.5.5 0 00-.5-.5zm-.625 9.875H1.125v-.623l2.164-2.568 2.345 2.782L9.283 5.64l3.592 4.26v.475zm0-2.028L9.378 4.2a.124.124 0 00-.19 0L5.633 8.412l-2.25-2.667a.124.124 0 00-.19 0L1.125 8.198V1.625h11.75v6.722zM3.75 5.125a1.375 1.375 0 100-2.75 1.375 1.375 0 000 2.75zm0-1.813a.437.437 0 11.001.874.437.437 0 01-.001-.873z"></path>
  </symbol>
</svg>
</svg>
</svg>