<svg width="30" height="30" fill="none" xmlns="http://www.w3.org/2000/svg"><g clip-path="url(#clip0)" fill="#E2AB3F"><path d="M26.338 3.585H3.668A3.672 3.672 0 000 7.253v15.494a3.672 3.672 0 003.669 3.669H26.33A3.672 3.672 0 0030 22.747V7.26a3.668 3.668 0 00-3.662-3.675zm1.992 19.162a1.995 1.995 0 01-1.992 1.992H3.668a1.995 1.995 0 01-1.992-1.992V7.26c0-1.099.894-1.993 1.993-1.993H26.33c1.1 0 1.993.894 1.993 1.993v15.487h.006z"/><path d="M18.92 14.808l7.337-6.58a.842.842 0 00.062-1.185.842.842 0 00-1.185-.063l-10.118 9.082-1.974-1.763c-.006-.006-.013-.012-.013-.019a1.244 1.244 0 00-.136-.118L4.86 6.974a.837.837 0 00-1.186.069.837.837 0 00.068 1.185l7.424 6.636-7.393 6.92a.841.841 0 001.149 1.23l7.504-7.02 2.036 1.818a.837.837 0 001.118-.006l2.091-1.875 7.462 7.09a.837.837 0 101.154-1.217l-7.368-6.996z"/></g><defs><clipPath id="clip0"><path fill="#fff" d="M0 0h30v30H0z"/></clipPath></defs></svg>